<svg xmlns="http://www.w3.org/2000/svg" viewBox="0 0 512 512">
  <defs>
    <linearGradient id="bg" x1="64" y1="32" x2="448" y2="480" gradientUnits="userSpaceOnUse">
      <stop offset="0" stop-color="#0A74FF"/>
      <stop offset="0.55" stop-color="#111827"/>
      <stop offset="1" stop-color="#21C56B"/>
    </linearGradient>
    <filter id="shadow" x="-20%" y="-20%" width="140%" height="140%">
      <feDropShadow dx="0" dy="18" stdDeviation="22" flood-color="#000000" flood-opacity="0.28"/>
    </filter>
  </defs>
  <rect width="512" height="512" rx="112" fill="url(#bg)"/>
  <circle cx="256" cy="256" r="168" fill="#0D111A" opacity="0.46"/>
  <g filter="url(#shadow)">
    <path d="M150 172c0-28 22-50 50-50h98c62 0 104 35 104 86 0 33-17 58-46 72 36 13 56 42 56 79 0 57-45 96-112 96H150V172Z" fill="#F7F8FB"/>
    <path d="M218 217h72c24 0 39-12 39-32s-15-32-39-32h-72v64Zm0 150h80c27 0 43-14 43-36s-16-36-43-36h-80v72Z" fill="#0D111A"/>
  </g>
  <path d="M107 363c43 35 93 53 149 53s106-18 149-53" fill="none" stroke="#63E88D" stroke-width="22" stroke-linecap="round"/>
  <circle cx="142" cy="140" r="18" fill="#63E88D"/>
  <circle cx="370" cy="140" r="18" fill="#FF4F6F"/>
</svg>
